<?xml version="1.0" encoding="UTF-8"?>
<svg width="700pt" height="700pt" version="1.1" viewBox="0 0 700 700" xmlns="http://www.w3.org/2000/svg" xmlns:xlink="http://www.w3.org/1999/xlink" fill="#f2f2f2">
 <g>
  <path d="m529.03 38.078c-46.535-26.824-106.18-10.809-133 35.727-24.922 43.23-12.824 97.719 26.266 126.79l-146.89 237.05-71.848 16.855-1.1211-4.7031c-0.55859-2.3516-2.9102-3.8086-5.2656-3.2461l-71.508 16.965c-2.3516 0.55859-3.8086 2.9102-3.2461 5.2656l6.6094 27.832c0.55859 2.3516 2.9102 3.8086 5.2656 3.2461l71.566-16.91c2.3516-0.55859 3.8086-2.9102 3.2461-5.2656l-1.3984-5.8789 75.375-17.695c2.2969-0.55859 4.2578-1.9609 5.4883-3.9766l148.85-240.24c45.586 22.457 101.59 5.9375 127.34-38.695 26.766-46.594 10.75-106.23-35.73-133.12zm-84.617 160.39 21.672-34.945c19.32 6.7773 41.383-0.95312 51.969-19.32 11.984-20.832 4.8711-47.375-15.961-59.414-20.832-11.984-47.375-4.8711-59.414 15.961-10.359 17.973-6.4414 40.207 8.1758 53.703l-21.559 34.832c-33.039-25.258-43.121-71.848-21.785-108.81 23.184-40.152 74.703-53.984 114.86-30.855 40.152 23.184 53.984 74.703 30.855 114.86-22.008 38.191-69.664 52.527-108.81 33.992z"/>
  <use x="70" y="568.398438" xlink:href="#g"/>
  <use x="72.054688" y="568.398438" xlink:href="#a"/>
  <use x="73.4375" y="568.398438" xlink:href="#b"/>
  <use x="75.335938" y="568.398438" xlink:href="#c"/>
  <use x="77.222656" y="568.398438" xlink:href="#e"/>
  <use x="78.5625" y="568.398438" xlink:href="#b"/>
  <use x="80.460938" y="568.398438" xlink:href="#j"/>
  <use x="83.441406" y="568.398438" xlink:href="#f"/>
  <use x="85.445312" y="568.398438" xlink:href="#i"/>
  <use x="88.246094" y="568.398438" xlink:href="#h"/>
  <use x="90.410156" y="568.398438" xlink:href="#u"/>
  <use x="91.371094" y="568.398438" xlink:href="#t"/>
  <use x="93.195312" y="568.398438" xlink:href="#c"/>
  <use x="95.085938" y="568.398438" xlink:href="#a"/>
  <use x="96.46875" y="568.398438" xlink:href="#d"/>
  <use x="99.367188" y="568.398438" xlink:href="#g"/>
  <use x="101.421875" y="568.398438" xlink:href="#c"/>
  <use x="103.308594" y="568.398438" xlink:href="#f"/>
  <use x="105.3125" y="568.398438" xlink:href="#a"/>
  <use x="106.695312" y="568.398438" xlink:href="#b"/>
  <use x="108.59375" y="568.398438" xlink:href="#a"/>
  <use x="109.976562" y="568.398438" xlink:href="#c"/>
  <use x="70" y="571.199219" xlink:href="#s"/>
  <use x="71.21875" y="571.199219" xlink:href="#a"/>
  <use x="72.597656" y="571.199219" xlink:href="#d"/>
  <use x="74.523438" y="571.199219" xlink:href="#r"/>
  <use x="78.414063" y="571.199219" xlink:href="#e"/>
  <use x="79.753906" y="571.199219" xlink:href="#q"/>
  <use x="81.746094" y="571.199219" xlink:href="#b"/>
  <use x="84.621094" y="571.199219" xlink:href="#p"/>
  <use x="86.964844" y="571.199219" xlink:href="#d"/>
  <use x="88.886719" y="571.199219" xlink:href="#o"/>
  <use x="90.882812" y="571.199219" xlink:href="#n"/>
  <use x="93.847656" y="571.199219" xlink:href="#m"/>
  <use x="95.902344" y="571.199219" xlink:href="#a"/>
  <use x="97.28125" y="571.199219" xlink:href="#d"/>
  <use x="99.207031" y="571.199219" xlink:href="#l"/>
  <use x="100.164062" y="571.199219" xlink:href="#b"/>
  <use x="102.066406" y="571.199219" xlink:href="#k"/>
  <use x="103.722656" y="571.199219" xlink:href="#e"/>
 </g>
</svg>
