<?xml version="1.0" encoding="iso-8859-1"?>
<!-- Generator: Adobe Illustrator 16.0.0, SVG Export Plug-In . SVG Version: 6.00 Build 0)  -->
<!DOCTYPE svg PUBLIC "-//W3C//DTD SVG 1.1//EN" "http://www.w3.org/Graphics/SVG/1.1/DTD/svg11.dtd">
<svg version="1.1" id="Capa_1" xmlns="http://www.w3.org/2000/svg" xmlns:xlink="http://www.w3.org/1999/xlink" x="0px" y="0px"
	 width="50.203px" height="50.203px" viewBox="0 0 50.203 50.203" style="enable-background:new 0 0 50.203 50.203;"
	 xml:space="preserve">
<g>
	<g>
		<path d="M0.498,49.851h47.895c0.276,0,0.5-0.225,0.5-0.5c0-4.964-8.064-9.1-19.613-10.055c-0.029-0.002-0.059,0.012-0.086,0.014
			c-3.309-6.455,0.484-18.478,1.34-20.986c0.396,0.179,0.836,0.277,1.289,0.277c0.949,0,1.793-0.429,2.375-1.093
			c3.996,3.102,10.32,8.621,10.32,10.261c0,0.271,0.223,0.498,0.494,0.5c0.002,0,0.004,0,0.006,0c0.271,0,0.494-0.218,0.5-0.487
			c0.01-0.324,0.146-7.995-3.226-11.444c-0.334-0.342-0.69-0.631-1.069-0.868c2.03-0.018,4.68,0.252,6.276,1.607
			c0.938,0.794,1.394,1.852,1.394,3.233c0,0.245,0.18,0.454,0.42,0.493c0.246,0.042,0.477-0.102,0.555-0.333
			c0.051-0.146,1.191-3.645-1.045-6.761c-1.93-2.687-5.705-4.188-11.24-4.474c2.521-1.077,7.221-2.396,10.416,0.803
			c0.182,0.178,0.459,0.195,0.658,0.043c0.199-0.153,0.254-0.43,0.129-0.647c-0.131-0.224-3.229-5.483-8.312-6.149
			c-2.767-0.357-5.556,0.715-8.297,3.206c-0.224-0.92-0.781-2.312-2.188-3.543c-2.611-2.291-6.952-3.072-12.911-2.315
			c-0.081,0.008-0.131,0.016-0.147,0.02c-0.267,0.049-0.446,0.301-0.404,0.569s0.283,0.448,0.559,0.419
			c0.024-0.003,0.049-0.007,0.074-0.01c0.463-0.047,4.023-0.188,8.218,5.142c-2.656-0.812-8.208-2.04-12.616,0.124
			c-2.637,1.294-4.436,3.603-5.347,6.863c-0.065,0.233,0.046,0.479,0.264,0.585c0.216,0.104,0.48,0.04,0.622-0.156
			c0.04-0.054,3.838-5.123,12.46-3.888c-3.02,1.73-10.212,6.608-10.281,13.839c-0.002,0.223,0.145,0.421,0.358,0.484
			c0.214,0.061,0.444-0.023,0.563-0.212c0.06-0.093,6.012-9.244,13.172-9.257c0.117,0.712,0.468,1.34,0.976,1.809
			c-0.765,1.115-4.947,7.863-5.366,22.292C8.488,40.104,0,44.349,0,49.353C-0.002,49.626,0.223,49.851,0.498,49.851z M22.772,26.737
			c0.743,0.296,1.855,0.343,2.464,0.343c0.518,0,1.397-0.039,2.108-0.231c-0.209,1.29-0.371,2.635-0.448,3.981
			c-0.002,0.004-0.006,0.006-0.008,0.011c-0.236,0.135-1.098,0.344-2.441,0.344c-1.344,0-2.205-0.209-2.443-0.344
			c-0.009-0.023-0.032-0.036-0.044-0.058C22.197,29.302,22.475,27.958,22.772,26.737z M24.31,21.746c0.7,0.4,1.938,0.45,2.419,0.45
			c0.33,0,1.017-0.021,1.642-0.162c-0.283,1.082-0.566,2.3-0.814,3.602c-0.024,0.038-0.063,0.064-0.082,0.107
			c-0.223,0.131-1.014,0.334-2.235,0.334c-1.193,0-1.96-0.19-2.208-0.32C23.444,24.199,23.885,22.853,24.31,21.746z M24.447,32.185
			c0.711,0,1.679-0.057,2.407-0.271c-0.036,1.754,0.091,3.483,0.46,5.08c-0.006,0.017-0.021,0.022-0.027,0.039
			c-0.254,0.17-1.293,0.44-2.979,0.44c-1.688,0-2.729-0.271-2.982-0.438c-0.005-0.019-0.021-0.023-0.027-0.039
			c0.115-1.861,0.291-3.582,0.516-5.162C22.6,32.135,23.795,32.185,24.447,32.185z M21.23,38.08c0.916,0.34,2.314,0.395,3.074,0.395
			c0.819,0,2.384-0.061,3.283-0.479c0.441,1.41,1.111,2.674,2.063,3.711c-0.317,0.32-1.7,0.895-4.217,0.895
			c-2.832,0-4.236-0.729-4.292-1C21.143,40.372,21.179,39.208,21.23,38.08z M31.822,17.599c-0.812,0-1.555-0.459-1.928-1.198
			c-0.158-0.316-0.238-0.643-0.238-0.969c0-0.618,0.26-1.19,0.732-1.612c0.401-0.358,0.912-0.555,1.434-0.555
			c1.195,0,2.168,0.972,2.168,2.167C33.99,16.627,33.018,17.599,31.822,17.599z M24.57,14.139c-5.898,0-10.784,5.397-12.897,8.16
			c1.469-7.254,10.711-11.742,10.812-11.79c0.193-0.092,0.307-0.297,0.281-0.51c-0.025-0.212-0.183-0.386-0.393-0.43
			c-6.839-1.446-11.099,0.722-13.229,2.398c0.917-1.901,2.274-3.3,4.053-4.174C18.679,5.1,26.466,8.198,26.542,8.23
			c0.203,0.081,0.438,0.021,0.578-0.151c0.14-0.172,0.146-0.416,0.021-0.597c-2.456-3.547-4.791-5.281-6.605-6.117
			c3.9-0.088,6.915,0.696,8.771,2.314c1.976,1.716,2.017,3.754,2.019,3.838c0,0.202,0.121,0.384,0.31,0.461
			c0.188,0.079,0.401,0.035,0.545-0.108c2.733-2.735,5.485-3.944,8.159-3.596c2.466,0.321,4.459,1.912,5.781,3.326
			c-4.832-1.96-10.535,1.482-10.817,1.657c-0.191,0.117-0.281,0.347-0.222,0.562c0.063,0.215,0.258,0.364,0.479,0.364
			c6.295,0,10.479,1.378,12.438,4.097c0.775,1.076,1.08,2.223,1.164,3.216c-0.268-0.439-0.604-0.835-1.02-1.184
			c-3.181-2.694-9.566-1.667-9.836-1.622c-0.256,0.042-0.438,0.275-0.416,0.534c0.022,0.259,0.237,0.459,0.498,0.459
			c1.256,0,2.297,0.442,3.186,1.35c2.027,2.075,2.662,6.042,2.855,8.525c-2.437-3.186-8.232-7.765-9.64-8.854
			c-0.021-0.015-0.041-0.019-0.063-0.03c0.164-0.382,0.258-0.801,0.258-1.242c0-1.746-1.424-3.167-3.168-3.167
			c-0.575,0-1.141,0.162-1.635,0.464c-0.593-0.783-1.506-1.255-2.504-1.255C26.111,11.474,24.811,12.632,24.57,14.139z
			 M27.686,12.474c0.697,0,1.34,0.337,1.744,0.899c-0.033,0.037-0.056,0.079-0.086,0.118c-0.05,0.063-0.095,0.128-0.14,0.194
			c-0.074,0.109-0.142,0.22-0.197,0.336c-0.034,0.07-0.071,0.138-0.102,0.21c-0.056,0.128-0.097,0.26-0.134,0.395
			c-0.018,0.065-0.037,0.127-0.053,0.192c-0.041,0.202-0.066,0.407-0.066,0.615c0,0.217,0.031,0.432,0.076,0.644
			c0.017,0.06,0.031,0.118,0.049,0.178c0.021,0.07,0.029,0.141,0.058,0.211c-0.348,0.223-0.746,0.342-1.151,0.342
			c-1.193,0-2.167-0.972-2.167-2.167C25.517,13.446,26.49,12.474,27.686,12.474z M27.686,17.808c0.576,0,1.139-0.162,1.633-0.463
			c0.107,0.143,0.227,0.275,0.355,0.396c-0.169,0.471-0.552,1.59-0.986,3.125c-0.002,0.006-0.008,0.009-0.01,0.015
			c-0.197,0.124-0.888,0.313-1.947,0.313c-1.062,0-1.75-0.192-1.947-0.313c-0.014-0.044-0.053-0.071-0.077-0.109
			c0.788-1.86,1.451-2.922,1.675-3.253C26.779,17.7,27.219,17.808,27.686,17.808z M20.157,40.26
			c-0.007,0.44-0.013,0.886-0.013,1.341c0,1.375,2.743,2,5.292,2c2.546,0,5.291-0.625,5.291-2c0-0.063-0.013-0.129-0.037-0.188
			c-0.025-0.062-0.063-0.119-0.109-0.166c-0.271-0.271-0.514-0.571-0.734-0.886c10.082,0.951,17.432,4.438,17.996,8.49H1.061
			C1.657,44.678,9.646,41.04,20.157,40.26z"/>
	</g>
</g>
<g>
</g>
<g>
</g>
<g>
</g>
<g>
</g>
<g>
</g>
<g>
</g>
<g>
</g>
<g>
</g>
<g>
</g>
<g>
</g>
<g>
</g>
<g>
</g>
<g>
</g>
<g>
</g>
<g>
</g>
</svg>
